<svg xmlns="http://www.w3.org/2000/svg" viewBox="0 0 512 512"><rect width="512" height="512" rx="96" fill="#6366f1"/><path d="M344.4,81.6L346.3,79.4L348.8,77.9L349.7,75.2L349.5,72.5L349.6,70.2L350.0,67.8L351.1,65.9L351.4,63.1L351.6,59.1L350.9,55.7L350.3,53.5L348.5,49.5L348.8,46.6L349.6,44.3L351.9,43.4L353.2,41.4L355.5,42.3L357.9,44.9L359.8,47.6L361.8,50.1L363.5,51.9L364.7,54.7L365.9,56.5L367.2,58.3L368.9,60.0L371.4,63.0L373.1,64.4L375.0,65.7L377.0,67.2L380.6,70.0L382.8,71.0L386.4,72.3L388.9,72.9L391.1,73.4L392.5,75.3L395.6,77.3L398.6,77.6L400.8,77.2L402.7,75.5L404.2,73.9L406.0,72.2L407.8,70.1L409.2,68.1L409.8,70.6L408.4,72.6L407.7,74.9L406.2,76.8L405.4,79.8L406.7,83.8L408.0,86.3L408.6,89.2L410.5,91.6L412.8,91.2L414.7,89.4L416.9,89.5L415.1,91.0L413.0,93.4L409.4,94.3L406.8,94.8L405.5,96.7L403.7,98.6L401.4,97.6L400.5,99.6L398.0,99.3L395.7,99.5L392.2,98.1L389.2,99.2L386.6,100.8L382.7,104.6L380.0,107.7L378.7,109.5L376.8,113.4L376.7,115.6L376.5,118.5L375.5,121.0L373.7,119.7L371.6,118.5L369.3,117.3L366.1,116.1L364.0,114.8L361.8,113.5L359.7,112.0L357.8,110.1L355.6,109.6L353.2,107.4L350.6,106.5L347.5,106.8L344.4,108.5L342.2,110.3L340.1,111.9L338.0,113.3L337.3,111.1L335.2,108.8L333.0,107.4L330.3,107.3L328.4,109.6L327.4,112.0L327.4,114.9L330.0,116.4L332.0,117.9L335.0,117.8L336.7,120.1L338.2,122.1L341.1,123.4L340.1,125.9L337.7,126.0L335.5,125.2L333.3,124.2L331.6,126.4L329.7,127.7L329.6,130.3L326.8,131.6L324.7,132.7L322.4,130.3L322.7,127.0L323.8,124.7L324.9,122.2L323.7,119.0L321.3,117.3L319.3,115.3L319.0,112.5L320.2,110.0L319.7,106.8L321.4,105.1L323.6,104.7L325.4,102.5L327.5,103.1L328.4,100.9L331.0,98.4L330.2,96.2L328.4,94.1L328.1,91.9L330.1,90.5L332.9,91.6L335.3,93.2L337.5,93.5L340.3,94.4L343.2,94.1L345.4,91.6L345.9,88.8L344.7,86.6L344.6,83.8ZM448.4,48.8L450.6,48.0L450.7,45.4L451.8,42.7L453.5,46.6L455.7,46.9L458.6,46.1L460.9,43.1L462.9,41.5L465.5,40.0L467.5,41.6L467.3,43.9L465.6,45.4L463.1,45.2L461.2,46.8L459.0,47.6L456.9,48.6L454.6,50.2L453.1,52.0L451.4,53.7L448.8,53.6L446.6,54.2L445.7,57.1L443.0,58.7L441.0,61.2L439.2,62.9L437.1,63.9L435.8,66.0L435.0,63.9L437.1,62.1L439.6,60.0L438.5,57.9L440.7,57.2L442.1,55.4L444.1,53.5L445.4,50.9L447.9,50.7ZM342.9,50.5L341.2,49.1L342.0,46.9L344.2,48.6L342.9,50.5ZM433.9,78.3L433.4,80.5L431.5,81.7L429.9,80.2L432.2,79.4ZM418.6,73.6L417.3,75.4L415.8,77.7L413.5,79.3L413.1,83.2L411.1,82.0L410.7,79.3L412.8,77.5L414.8,75.6L416.2,73.3L418.0,71.1L419.5,69.4L420.5,67.1L421.7,64.9L424.1,64.7L425.9,66.2L429.4,66.0L426.7,67.5L425.2,69.4L422.1,69.8L420.1,71.9L418.6,73.6ZM340.3,144.5L342.5,142.7L342.8,140.2L343.1,137.6L341.5,136.0L339.8,138.1L337.5,138.2L335.3,139.2L335.3,136.6L336.1,133.6L337.4,131.1L339.8,131.6L342.0,133.7L344.3,134.3L346.3,132.8L345.5,136.9L345.3,139.2L345.2,141.7L345.3,144.5L345.7,147.6L346.4,150.6L348.3,151.9L350.0,153.9L351.5,156.1L352.4,158.5L352.6,160.7L353.5,163.2L354.5,165.9L355.1,168.3L354.7,170.7L356.1,172.5L354.5,174.6L354.5,177.1L353.5,179.2L352.6,181.4L352.2,183.6L350.7,185.4L348.7,187.1L347.4,189.0L346.3,191.5L346.8,194.2L346.6,196.9L347.7,198.9L345.4,197.2L342.9,197.0L340.3,197.5L339.6,199.7L338.2,201.8L337.6,204.5L337.6,207.2L338.7,210.2L339.2,213.4L339.5,216.4L339.3,219.5L338.9,222.2L338.4,225.5L336.1,227.8L334.5,231.1L333.9,233.2L332.9,236.0L332.7,239.0L331.7,241.1L332.5,244.6L333.7,247.0L336.0,251.1L333.4,252.5L331.1,254.3L329.6,256.3L329.0,258.6L329.1,260.9L327.9,263.5L325.7,263.8L323.8,265.1L321.9,267.0L320.1,268.2L319.9,265.6L319.6,263.2L320.2,260.6L321.1,258.5L322.7,256.7L324.5,255.3L322.9,253.2L320.5,253.5L318.4,254.5L317.2,256.6L317.0,259.5L318.1,262.1L316.3,263.5L315.7,261.2L313.4,259.9L310.7,260.4L308.7,261.5L307.5,264.3L308.0,266.9L307.6,269.2L306.4,271.2L304.9,273.2L302.6,273.4L302.6,271.0L302.3,268.6L302.8,265.8L301.5,263.6L299.1,264.3L298.3,266.7L295.8,268.0L294.8,270.9L293.2,272.9L289.5,272.9L286.7,273.3L283.4,272.7L279.2,273.3L276.6,274.2L274.3,274.6L276.0,273.2L278.3,271.6L276.4,270.5L274.1,270.7L273.3,268.1L272.3,270.9L270.8,268.6L271.2,266.3L268.8,265.9L267.8,268.3L266.7,270.2L265.9,272.3L267.2,274.2L269.9,275.9L272.3,277.2L271.8,280.2L269.0,280.1L266.9,281.0L264.4,281.7L262.3,282.5L261.4,285.3L260.6,287.6L258.5,289.2L257.6,291.5L256.3,293.6L254.1,295.9L251.4,295.7L249.0,294.9L247.3,292.9L246.2,290.6L243.9,289.4L242.3,287.3L243.9,285.4L244.2,282.9L242.5,280.9L244.2,279.4L246.4,277.5L247.9,275.8L248.4,273.3L246.4,271.7L244.1,272.8L241.8,273.7L239.6,272.7L237.3,271.2L234.3,270.9L231.8,270.9L229.3,271.6L227.9,273.2L225.7,274.5L223.7,276.7L221.2,277.3L218.3,276.3L215.9,277.1L214.5,278.8L212.5,277.7L210.0,278.4L207.6,279.4L205.3,280.0L203.6,281.4L201.2,282.2L200.2,279.8L197.8,279.0L196.1,280.9L196.2,283.4L195.7,286.0L194.3,288.3L191.5,287.1L189.5,285.9L187.4,284.9L184.7,286.1L182.3,285.5L180.2,287.6L177.9,286.0L174.8,287.1L174.4,284.9L174.7,281.9L174.1,279.3L176.5,278.6L178.9,278.6L181.6,278.0L183.4,276.5L184.9,274.6L187.1,272.6L189.7,272.0L191.3,270.4L192.8,268.6L194.5,267.0L196.6,265.5L198.5,263.7L200.8,261.5L202.7,260.3L202.4,257.6L205.2,256.6L207.9,256.0L210.0,254.7L213.3,254.8L214.6,257.2L216.9,255.9L219.4,256.2L222.4,256.2L224.8,255.8L227.5,255.6L229.6,254.5L232.2,253.7L234.6,253.1L237.4,253.1L239.8,253.4L242.5,251.8L244.9,250.9L245.2,253.3L245.8,256.0L248.0,254.8L249.8,256.5L252.4,256.6L254.7,255.6L257.1,253.4L257.7,251.0L258.6,253.1L259.0,250.7L257.6,248.8L256.7,246.6L258.0,244.2L259.5,241.9L261.4,240.3L263.5,238.5L265.0,236.7L266.5,234.8L268.3,232.1L269.7,228.7L269.9,226.0L269.2,223.2L268.8,221.0L270.0,218.5L272.4,217.9L274.9,216.7L277.2,215.6L279.4,215.7L277.6,218.0L276.2,219.8L274.8,221.5L271.9,222.5L272.7,224.6L274.5,226.8L274.0,229.5L276.6,230.9L278.8,230.9L280.4,228.8L281.7,226.9L284.0,226.4L287.0,225.4L290.1,223.6L292.5,222.7L294.6,221.8L296.8,219.7L298.9,218.4L300.1,216.3L301.6,214.5L302.8,211.5L304.0,208.9L306.3,207.3L308.4,206.2L311.0,204.8L312.9,202.3L313.6,199.8L313.7,197.4L315.2,194.2L316.2,191.5L317.8,189.8L319.5,186.1L320.4,183.5L321.0,180.8L321.4,178.5L322.9,176.1L323.6,172.0L323.6,169.4L322.9,167.1L320.9,165.6L318.7,166.4L317.6,163.6L320.1,164.1L321.7,161.9L322.5,159.7L323.0,156.3L321.6,154.3L321.6,151.7L322.2,148.5L324.5,147.6L326.7,146.3L327.5,144.1L327.9,140.8L328.0,138.2L330.6,138.0L332.9,137.9L333.1,141.4L333.6,144.4L335.6,145.5L336.6,143.0L338.8,143.4ZM298.2,198.6L298.0,201.2L297.1,203.7L299.3,204.2L298.2,206.6L295.8,208.9L293.5,209.4L294.5,207.4L293.9,204.8L294.7,202.7L296.6,200.3L298.2,198.6ZM236.9,279.1L238.1,276.8L240.0,275.2L239.5,277.8L240.2,280.2L238.3,281.7L235.7,281.1L236.9,279.1ZM213.0,239.2L214.6,241.6L212.3,242.9L211.7,240.3ZM235.4,286.3L235.5,288.6L234.2,290.6L232.5,292.3L230.6,294.2L228.7,296.6L228.0,299.2L225.9,298.6L224.1,296.9L221.8,295.6L219.6,295.2L216.3,296.7L214.1,297.8L212.3,299.2L212.3,301.8L210.7,303.8L208.8,305.2L208.4,308.3L208.8,310.9L206.3,309.7L204.1,309.9L203.9,307.7L201.5,306.7L200.1,304.8L199.3,302.5L201.0,301.0L199.1,299.7L198.5,297.4L196.0,297.3L193.6,297.9L195.8,297.0L198.0,295.6L199.6,294.0L201.7,292.9L203.6,290.5L203.8,287.9L205.4,285.7L207.4,284.2L209.6,286.4L212.3,287.0L214.8,286.3L217.2,286.3L219.0,282.8L220.5,280.9L221.9,279.1L224.2,278.9L226.9,278.5L229.0,279.3L230.4,281.1L232.5,282.0L235.0,282.5L234.3,285.0ZM175.6,289.8L176.6,292.2L178.6,293.6L181.1,294.2L183.4,293.5L185.4,292.1L187.3,293.6L187.8,295.8L186.4,298.3L184.0,298.9L185.5,300.8L187.8,300.6L190.6,300.4L189.3,302.5L191.0,304.3L191.5,306.7L191.9,309.0L189.3,311.3L188.0,313.5L187.2,315.9L186.0,318.1L185.2,320.4L184.6,322.7L183.7,325.4L183.2,328.1L183.3,330.7L182.1,333.5L182.0,335.8L179.7,336.3L177.7,335.0L176.1,337.2L177.7,339.0L175.9,340.4L174.3,341.9L171.9,343.0L172.1,340.6L172.5,338.4L172.0,336.2L171.1,333.7L172.6,332.0L171.3,330.2L169.4,332.0L168.2,334.8L168.8,337.9L170.3,339.9L168.2,340.9L166.6,339.4L164.2,339.0L162.7,337.1L164.7,334.7L164.9,332.1L162.5,329.2L163.2,326.7L162.9,324.2L165.3,322.3L166.6,320.5L167.6,317.9L168.8,315.8L169.9,313.3L167.2,313.3L168.8,311.4L169.1,309.0L167.3,307.5L166.5,304.6L164.3,302.8L162.0,303.4L162.8,305.8L162.4,308.1L164.8,308.2L165.7,310.7L164.0,312.3L161.7,312.6L162.5,309.6L160.0,310.3L157.7,312.4L155.6,313.7L156.6,311.7L155.9,309.5L154.2,307.6L153.8,305.2L156.3,305.4L156.3,308.1L158.5,308.4L158.8,305.8L157.0,304.5L155.6,302.8L153.7,301.2L152.6,299.2L155.2,298.6L157.4,298.0L156.8,295.8L159.1,296.8L161.3,295.7L162.1,293.4L164.3,294.3L166.2,292.9L167.2,290.9L168.1,288.8L170.4,288.0L172.7,287.4L175.0,287.3L175.6,289.8ZM146.6,279.5L148.7,280.6L147.8,283.0L146.5,280.8ZM150.6,272.1L151.0,275.2L149.3,277.2L149.7,279.4L147.7,277.7L148.6,275.3L150.1,272.5ZM140.2,309.5L141.4,312.0L139.6,313.9L137.2,313.3L137.5,311.0L140.2,309.5ZM165.9,315.3L165.8,317.5L163.6,317.3L164.7,315.0ZM161.5,314.5L163.2,317.4L160.8,320.9L159.3,318.7L159.9,316.5L161.5,314.5ZM176.4,351.9L175.3,353.9L174.3,356.1L173.9,353.9L175.1,351.8L175.5,349.3L176.8,347.1L177.0,349.9ZM147.5,394.3L149.7,393.1L151.8,392.0L154.3,391.8L152.6,393.9L150.8,395.3L149.8,397.4L147.6,396.0ZM167.7,354.1L170.0,355.4L169.1,358.5L166.8,358.5L165.7,355.9L167.3,354.3ZM141.7,404.8L141.5,402.5L143.9,404.5L142.2,406.5ZM122.5,431.9L122.3,429.4L124.3,428.1L126.6,426.7L125.2,424.6L127.4,425.4L129.5,423.8L131.2,421.1L132.1,423.5L130.9,425.4L128.8,426.8L126.8,428.2L124.4,428.9L125.6,431.0L123.5,432.6L122.6,435.1L121.0,433.2ZM58.2,465.0L60.4,466.1L59.8,468.2L57.3,467.5L58.2,465.0Z" fill="#ffffff" stroke="#ffffff" stroke-width="6" stroke-linejoin="round"/></svg>
