<svg xmlns="http://www.w3.org/2000/svg" viewBox="0 0 512 512"><rect width="512" height="512" rx="96" fill="#6366f1"/><path d="M335.1,187.8L337.5,186.9L338.6,183.7L339.0,180.6L339.1,178.0L336.8,175.8L334.8,178.1L331.8,179.0L329.2,179.7L328.0,176.5L328.9,173.9L330.4,169.9L333.2,169.3L335.8,170.3L337.6,172.4L340.0,173.5L342.5,172.5L342.5,177.0L342.1,179.6L342.1,183.8L342.1,186.7L342.8,192.2L343.9,196.5L345.5,198.8L348.1,200.4L349.9,202.8L351.1,205.1L352.4,207.8L353.5,210.5L353.0,213.2L355.1,215.2L355.4,218.3L356.3,221.7L356.0,224.3L357.1,227.7L356.2,230.5L355.2,233.0L355.6,235.6L354.3,237.7L353.7,240.3L352.3,242.7L349.9,244.4L347.8,245.8L347.1,248.5L345.2,251.3L346.1,253.7L343.7,254.8L344.4,257.4L344.6,260.4L344.8,263.3L345.4,265.8L343.0,264.4L341.4,262.4L338.9,262.6L336.2,264.0L333.9,265.6L332.2,269.5L331.3,273.2L331.3,277.2L332.8,279.8L333.4,282.8L333.6,285.9L333.9,288.9L333.9,291.4L333.8,294.7L333.1,298.6L332.7,301.3L332.7,304.0L329.1,306.4L327.7,309.2L326.8,312.1L325.1,316.2L324.2,318.9L324.3,322.4L322.9,325.4L324.1,330.4L325.2,333.0L327.1,336.6L329.1,339.7L326.5,341.4L322.9,343.4L320.8,345.7L319.6,347.9L319.0,350.4L319.2,353.7L317.9,356.3L314.8,358.1L312.3,358.4L309.4,361.0L308.5,363.6L305.8,363.8L306.6,361.0L306.1,358.5L305.8,355.7L306.5,353.2L306.3,350.6L308.1,348.8L311.3,345.9L310.3,342.7L307.5,343.8L305.0,342.6L304.3,345.3L302.2,347.6L301.3,350.4L301.8,353.1L303.5,355.3L301.0,357.4L300.6,354.5L298.0,352.6L295.4,352.4L292.1,353.2L289.9,356.2L288.5,358.5L288.6,361.3L289.7,364.7L288.0,367.4L285.7,370.5L283.5,372.1L281.5,370.5L280.9,366.4L281.8,364.0L281.6,360.6L284.2,360.4L282.2,358.0L278.3,358.0L275.6,360.1L274.5,362.4L271.8,363.7L270.3,367.9L268.0,370.8L265.3,371.4L262.8,370.8L258.8,371.3L256.0,370.6L251.5,370.5L248.2,371.3L244.4,372.5L241.1,373.2L242.1,370.9L245.0,370.4L247.2,369.0L245.4,366.5L242.3,367.7L239.6,366.4L239.8,362.6L238.9,365.2L238.3,367.8L236.9,365.2L236.1,362.3L237.5,359.4L235.4,360.9L232.7,361.1L231.9,364.1L230.3,366.8L229.1,369.8L231.0,372.6L233.1,374.1L235.8,375.2L238.3,376.8L237.9,379.5L236.5,382.4L233.6,381.0L230.6,382.3L227.9,383.0L225.2,383.7L223.4,385.6L222.7,388.4L222.4,391.0L220.2,392.6L217.7,395.9L216.4,398.7L215.6,401.3L212.3,403.5L209.5,403.8L205.7,402.7L203.3,401.3L201.5,398.8L201.0,395.9L198.4,394.7L196.4,392.5L196.0,389.7L196.0,386.9L198.3,385.0L196.7,382.7L198.3,380.0L200.3,378.4L202.1,376.6L204.0,374.3L204.3,371.3L201.3,369.1L198.8,370.0L196.0,371.6L193.2,371.4L190.8,369.7L188.4,368.4L185.9,367.4L182.7,367.6L180.2,368.9L177.1,368.8L175.0,371.2L172.5,373.2L169.9,372.6L169.1,376.2L166.1,376.5L163.7,374.8L160.7,376.4L158.0,376.7L155.9,379.1L153.7,377.9L150.9,378.4L148.3,380.2L145.7,380.3L143.2,380.6L141.8,382.7L138.9,383.8L136.5,383.3L135.6,380.6L132.9,379.4L130.7,381.5L129.7,384.0L129.2,388.4L127.1,390.7L127.8,393.4L125.4,391.7L122.7,391.0L120.4,389.2L117.4,387.8L115.1,388.8L112.0,388.4L109.3,389.6L107.1,391.6L104.6,390.7L102.5,388.4L99.4,390.9L98.8,387.8L99.2,384.7L97.8,381.4L99.7,379.6L101.9,378.0L104.5,379.0L107.2,378.5L110.0,377.8L111.6,375.8L113.8,373.2L115.1,370.8L118.1,370.5L120.6,369.5L122.9,367.2L125.0,364.7L126.7,362.7L129.6,360.3L131.7,358.8L133.5,356.5L136.4,354.4L139.1,352.7L139.7,349.9L142.7,347.6L145.1,346.8L148.0,346.0L150.6,345.4L154.2,344.9L154.2,347.7L157.3,348.0L159.4,346.5L163.0,346.9L165.9,347.1L169.0,346.8L171.9,346.6L174.5,346.1L176.9,345.4L179.2,343.8L182.6,342.4L185.6,342.5L188.5,342.6L192.0,342.9L194.5,341.6L197.2,340.0L200.1,340.2L199.7,342.8L198.2,345.2L200.5,346.6L202.8,345.5L205.8,345.7L208.5,346.6L211.3,346.2L213.7,344.8L216.7,343.0L216.2,340.5L218.1,342.6L219.3,339.5L217.3,336.4L216.0,333.3L217.8,329.8L219.3,327.8L221.3,325.4L223.5,323.5L225.7,321.8L227.8,319.2L229.9,316.4L231.4,314.4L233.8,310.0L234.8,306.7L234.9,303.9L234.0,301.1L232.8,297.9L233.8,294.6L236.7,292.2L241.9,290.6L244.4,289.3L247.8,288.4L248.3,291.0L245.8,292.5L245.2,295.3L242.5,295.8L240.9,298.0L237.7,299.0L237.0,301.7L239.6,302.5L241.4,305.1L239.9,307.7L241.8,309.9L244.4,310.9L247.6,310.9L249.7,307.9L251.6,305.2L255.0,304.5L259.1,303.0L263.6,300.5L265.8,298.8L268.8,298.8L271.7,296.5L274.7,293.8L277.1,291.6L278.8,288.6L280.8,286.2L281.7,283.2L283.4,279.6L286.7,277.3L289.7,275.7L293.4,273.7L296.2,270.2L297.1,267.7L297.2,263.1L298.5,260.3L300.8,254.8L302.9,253.0L304.4,250.9L305.5,247.1L306.8,243.4L307.7,239.5L308.3,236.3L310.4,232.8L310.9,230.0L311.3,227.0L311.3,223.3L310.7,220.8L309.2,218.5L305.7,219.1L303.2,217.3L306.3,215.8L308.1,213.6L309.3,211.1L310.0,208.1L310.5,204.6L308.5,201.8L308.5,198.0L306.7,196.1L309.4,193.5L311.4,191.5L314.3,191.0L316.8,187.2L317.3,184.3L317.3,181.5L317.6,178.8L320.3,178.5L322.8,177.4L324.8,179.0L324.9,183.4L325.6,187.7L328.5,189.3L330.1,186.9L330.3,184.1L332.7,185.5L335.1,187.8ZM341.0,98.3L343.7,95.1L346.6,93.9L348.2,90.0L348.5,87.3L348.4,83.0L348.1,79.7L349.6,77.1L350.8,74.5L350.9,71.8L351.5,68.9L351.3,66.2L350.8,63.6L349.3,58.2L346.8,52.4L346.4,49.4L347.4,47.0L347.9,44.4L351.6,43.9L353.5,42.1L355.4,40.4L357.5,44.0L360.2,46.0L362.9,49.8L365.8,53.3L367.5,55.2L369.0,57.7L371.0,60.9L373.5,65.1L375.9,67.5L379.4,71.7L381.9,73.7L384.5,75.5L387.5,77.8L389.1,79.8L392.5,81.6L395.6,83.1L400.8,85.0L404.4,85.8L407.5,86.5L409.5,89.2L411.2,91.2L413.9,92.1L418.1,92.5L421.3,92.0L424.0,89.6L426.2,87.2L428.8,84.8L431.2,81.8L433.1,79.7L434.1,82.6L432.1,85.3L431.2,88.6L429.0,91.4L428.3,94.3L427.6,97.9L429.7,101.4L431.6,104.8L432.1,107.9L433.5,110.9L437.4,113.3L439.1,111.4L441.1,109.4L444.2,109.5L441.7,111.7L439.2,113.0L438.3,115.9L433.6,116.3L430.7,117.5L428.7,119.2L426.7,120.9L424.3,122.2L422.6,120.3L419.7,121.8L417.4,123.4L414.1,123.7L411.5,122.9L409.1,121.7L406.6,122.4L403.7,123.8L401.1,125.6L395.6,130.9L391.7,135.3L389.9,138.0L388.6,140.3L387.1,143.5L387.0,146.7L387.0,149.8L385.6,153.2L382.7,152.5L379.8,150.7L377.5,149.2L374.0,147.9L371.4,146.8L369.0,145.5L366.5,143.7L364.1,142.5L361.5,140.1L358.2,138.6L355.6,136.7L353.5,134.9L350.8,133.8L347.6,133.5L342.8,135.3L339.6,137.6L337.5,139.1L334.9,141.4L333.2,143.9L331.0,141.4L329.4,138.6L327.5,136.0L324.7,134.9L321.0,134.8L319.2,136.6L317.5,139.5L316.3,143.3L318.0,146.3L320.5,147.8L323.3,149.9L325.9,149.4L328.5,150.9L330.0,153.0L331.6,155.1L333.6,156.7L336.2,157.7L334.8,161.3L332.4,162.4L329.7,160.8L327.0,160.5L325.1,158.9L323.9,161.3L320.6,162.7L319.9,165.6L319.4,168.4L315.9,169.5L314.6,171.8L311.6,171.2L309.7,167.5L309.8,164.8L311.5,160.8L313.2,156.0L312.7,153.2L311.2,150.7L308.1,149.1L305.2,146.2L304.8,142.3L306.5,138.7L305.8,134.1L308.2,131.7L311.4,131.2L313.3,129.1L317.0,128.9L317.9,126.3L319.6,123.7L322.0,122.2L320.7,119.0L318.2,116.1L317.7,112.9L319.7,111.4L322.1,110.4L324.5,112.4L327.9,114.7L331.1,115.1L333.5,114.2L335.2,116.4L337.9,116.8L340.8,114.5L342.3,112.4L343.1,109.4L342.2,106.6L342.1,103.2L341.2,100.5ZM100.5,394.8L102.0,398.2L103.8,399.9L106.9,400.6L110.7,401.4L112.9,398.7L115.9,398.9L118.0,401.2L118.1,404.4L115.7,405.6L113.5,407.5L112.9,410.0L117.0,409.6L119.6,410.6L119.7,413.5L122.5,415.5L122.4,418.1L124.3,420.4L123.1,422.6L120.1,425.4L118.1,428.6L117.8,431.2L116.4,433.6L114.7,436.5L113.5,440.6L112.7,443.6L111.5,447.9L112.3,450.7L111.6,454.9L109.8,457.1L109.6,460.3L107.0,461.8L104.6,459.6L101.4,461.4L103.3,463.5L102.5,465.9L100.3,467.6L98.1,469.4L95.3,470.6L92.9,471.9L94.3,469.0L95.2,466.6L96.1,464.1L95.3,460.9L93.7,458.8L91.4,456.3L93.8,455.1L96.3,454.9L94.6,452.8L91.9,453.2L90.8,455.9L90.0,458.9L90.8,463.4L93.2,464.9L92.2,467.2L89.5,467.4L87.7,465.4L85.0,465.1L82.4,464.1L81.2,461.5L84.0,460.5L85.4,456.8L85.0,454.2L81.9,450.9L82.6,448.4L82.4,445.3L82.3,442.8L85.9,441.1L86.8,438.6L88.7,436.6L90.2,433.6L90.0,430.6L92.4,428.3L89.5,428.1L90.9,425.6L92.0,423.1L89.8,421.4L87.9,419.5L87.6,415.9L86.0,413.4L83.5,412.1L81.2,414.2L82.2,417.7L81.7,420.9L84.8,420.7L86.5,423.2L86.0,425.8L83.4,427.7L80.7,427.3L82.3,425.1L81.0,423.0L78.2,424.0L75.7,425.3L73.9,427.5L73.6,424.4L71.8,422.3L70.0,420.2L69.7,417.3L70.3,414.6L73.0,417.1L73.2,419.9L76.2,421.3L76.1,418.3L74.8,415.6L73.0,413.7L69.8,414.2L69.6,411.6L68.0,409.3L70.0,406.6L72.8,407.0L73.2,403.9L75.3,402.1L77.0,404.7L80.2,403.2L81.1,400.8L84.5,401.2L86.9,400.6L87.4,397.5L88.8,394.3L91.8,392.9L94.0,391.2L96.6,392.2L99.3,392.1L100.5,394.8ZM185.7,389.9L186.7,392.2L186.3,395.0L183.7,396.8L181.5,398.4L179.6,400.0L177.7,402.1L176.2,404.5L175.2,408.2L172.1,407.4L170.4,405.5L166.9,403.3L164.5,402.4L161.3,402.9L158.5,404.6L156.5,406.2L153.4,407.1L153.3,410.1L151.3,413.2L149.5,416.4L147.3,417.9L147.2,421.1L147.9,424.8L145.3,423.2L142.8,424.3L140.0,423.4L140.5,420.4L138.0,419.7L135.2,420.0L135.4,417.0L135.3,414.0L136.6,411.2L135.7,408.7L133.0,408.4L133.1,405.7L130.6,404.9L127.0,407.2L128.7,404.8L132.4,403.0L134.7,400.8L137.7,399.2L140.4,395.7L140.4,392.9L142.0,390.9L144.0,388.0L146.3,386.0L148.9,390.0L151.7,391.0L154.8,389.7L157.9,389.9L161.2,388.3L162.3,384.9L163.8,382.7L166.1,380.8L168.0,379.0L170.5,379.5L173.6,378.7L176.6,379.8L178.6,382.4L181.5,383.6L184.3,383.2L184.6,386.1L184.5,389.0Z" fill="#ffffff" stroke="#ffffff" stroke-width="30" stroke-linejoin="round" stroke-linecap="round"/></svg>
