<svg xmlns="http://www.w3.org/2000/svg" viewBox="0 0 512 512"><rect width="512" height="512" rx="96" fill="#6366f1"/><path d="M345.7,137.3L348.1,135.3L348.5,132.7L348.8,129.9L346.2,129.7L343.3,130.7L341.0,131.7L340.4,128.8L341.3,125.7L342.7,123.0L345.3,123.5L347.6,125.7L350.1,126.4L352.2,124.9L351.3,129.2L351.2,132.3L351.0,136.4L351.5,140.6L352.3,143.8L355.5,146.7L357.6,149.6L358.7,152.2L358.6,155.2L360.5,157.3L360.9,160.0L361.6,162.6L361.1,165.1L362.9,167.8L360.8,169.3L360.9,172.0L360.1,174.6L360.2,177.6L357.8,179.4L355.1,180.1L354.7,182.7L353.2,185.1L351.9,187.9L353.5,190.2L352.3,192.4L353.5,194.7L351.2,193.3L348.6,193.2L345.8,193.7L345.0,196.1L343.6,198.3L342.9,201.1L342.9,204.1L344.1,207.3L344.6,210.6L344.9,213.9L344.7,217.2L344.3,220.0L343.8,223.5L341.2,225.9L339.6,229.5L338.3,233.2L337.5,236.4L336.6,239.4L336.9,241.9L338.3,245.8L339.8,248.5L341.2,250.8L338.4,252.2L336.0,254.2L334.4,256.4L333.7,258.8L333.9,261.9L332.1,263.8L329.5,264.5L326.6,266.7L325.3,268.9L322.6,267.7L323.8,265.4L323.8,262.8L323.8,259.6L325.5,257.6L328.0,255.4L326.9,252.8L324.3,253.3L322.9,255.5L320.5,257.1L320.9,259.7L322.1,262.5L319.6,261.6L317.1,260.2L314.2,260.6L311.9,263.2L310.8,266.0L312.1,268.3L310.9,270.7L309.4,272.9L307.2,275.0L305.0,273.3L305.2,270.8L305.7,268.2L307.7,266.3L305.2,264.2L302.2,264.6L300.9,266.7L298.4,268.8L297.3,271.9L295.6,274.0L291.7,274.0L288.7,274.4L285.2,273.8L280.7,274.4L277.9,275.3L275.4,275.4L277.8,274.2L279.8,272.6L276.4,271.7L274.0,270.0L274.2,272.6L272.5,270.4L271.7,267.7L272.2,265.2L269.6,266.5L268.6,269.1L266.8,271.9L267.0,274.7L269.5,276.5L272.5,277.9L273.1,280.6L271.7,282.8L269.3,280.8L266.2,282.5L264.0,283.9L262.2,286.3L261.5,289.1L258.6,291.4L257.7,293.8L256.4,296.0L253.9,298.5L251.1,298.3L248.6,297.4L246.7,295.3L245.5,292.8L243.1,291.5L241.4,289.4L243.1,287.3L243.5,284.7L241.7,282.5L244.0,280.7L245.8,278.9L247.7,276.7L247.4,273.6L244.5,273.3L241.7,274.7L238.9,273.9L236.1,272.2L232.9,271.8L230.3,271.9L227.6,272.6L225.7,274.4L222.7,275.1L221.6,278.1L218.9,278.7L215.9,277.6L213.3,278.5L211.2,280.0L208.1,279.7L205.6,281.1L202.9,281.8L200.2,283.1L197.6,283.9L196.6,281.4L194.1,280.5L192.2,282.5L192.3,285.2L191.7,288.0L190.3,290.4L187.3,289.1L184.9,288.2L182.4,287.1L180.1,288.1L177.5,287.5L175.3,289.6L172.8,287.9L169.5,289.1L168.6,286.4L169.5,283.6L168.8,280.8L171.3,280.1L173.9,280.0L176.8,279.4L178.5,277.2L180.4,275.3L182.7,273.7L185.4,273.1L187.3,270.8L190.0,268.0L192.1,266.2L194.8,264.2L197.2,261.8L199.5,259.9L199.9,257.4L203.1,256.1L205.9,255.5L209.3,254.7L211.9,257.3L214.4,255.9L217.1,256.2L220.3,256.2L222.8,255.8L225.7,255.6L227.9,254.4L230.6,253.6L233.2,252.9L236.2,252.9L238.8,253.2L241.6,251.5L244.2,250.6L244.5,253.1L245.1,256.0L247.5,254.7L249.4,256.6L252.1,256.6L254.6,255.6L257.2,253.3L257.8,250.7L257.4,248.1L257.7,244.9L259.1,242.3L260.6,240.1L262.7,238.1L264.9,236.4L267.1,233.4L269.1,230.5L270.6,226.9L270.8,224.1L270.1,221.1L270.2,218.0L272.2,215.3L276.1,214.1L278.6,212.9L281.0,213.9L279.0,215.5L276.5,218.0L274.9,220.0L273.0,221.6L275.6,221.7L275.7,224.9L275.1,227.7L278.0,229.3L281.5,228.4L282.2,225.7L285.1,224.6L289.0,223.4L292.3,221.5L294.8,220.5L298.4,218.5L300.6,216.5L302.9,213.7L304.6,211.8L305.8,208.6L307.1,205.9L309.6,204.2L311.8,203.0L314.5,201.5L316.6,198.9L317.3,196.1L317.4,193.6L319.1,190.1L320.1,187.4L322.5,185.0L323.6,181.6L324.6,178.8L325.2,175.9L326.3,173.4L327.3,170.9L327.9,166.6L327.9,163.8L327.2,161.3L325.1,159.7L322.8,160.6L321.6,157.6L324.2,158.2L325.9,155.8L326.6,153.3L327.4,149.8L325.8,147.7L325.9,144.9L326.5,141.5L328.9,140.6L331.2,139.2L332.1,136.8L332.5,133.4L332.7,130.5L335.4,130.4L338.1,130.7L338.1,134.0L338.6,137.2L341.8,137.2L342.2,134.5L344.2,136.1ZM350.1,70.3L352.2,68.0L354.8,66.4L355.7,63.4L355.6,60.6L355.5,56.5L357.2,53.5L357.6,50.5L357.8,46.3L357.0,42.7L355.8,38.9L354.5,36.1L354.8,33.0L355.7,30.6L358.1,29.7L359.5,27.5L361.9,28.5L364.5,31.3L366.5,34.1L368.7,36.7L370.4,38.7L371.8,41.6L373.3,43.7L375.4,46.6L378.9,50.5L382.7,53.3L384.9,55.0L388.7,57.9L391.0,59.0L394.8,60.4L397.5,61.0L400.7,61.4L401.5,64.5L404.7,65.7L407.8,66.0L410.7,65.2L412.7,63.1L415.7,60.2L417.6,58.0L419.1,56.0L419.7,58.6L418.3,60.7L417.5,63.1L415.9,65.2L415.1,68.4L416.4,72.6L417.9,75.3L418.5,78.4L420.5,80.9L423.5,80.2L426.2,78.8L424.3,80.6L423.1,82.9L419.3,83.8L416.6,84.4L415.2,86.9L412.4,88.2L410.3,86.5L409.9,89.5L407.3,89.1L404.8,89.4L401.1,87.8L397.9,89.1L395.1,90.8L391.0,94.7L388.1,98.0L385.7,101.8L384.6,104.1L384.8,106.8L384.3,109.6L383.2,112.3L380.1,110.1L377.4,108.4L374.8,107.4L371.8,105.8L369.2,104.3L366.4,102.7L364.4,100.7L361.9,99.8L359.5,97.7L356.7,96.8L353.4,97.1L350.1,98.9L347.8,100.9L345.6,102.5L343.3,104.0L342.2,100.9L340.1,98.6L337.0,98.2L333.8,99.0L332.0,102.7L332.0,105.8L334.8,107.4L336.9,109.0L340.1,108.8L341.9,111.3L343.6,113.5L346.6,114.8L345.5,117.5L343.0,117.6L340.6,116.8L338.3,115.7L336.5,118.0L334.4,119.4L334.4,122.2L331.4,123.6L329.1,124.7L326.8,122.1L327.0,118.7L328.2,116.2L329.3,113.5L328.1,110.1L325.5,108.3L323.4,106.1L323.1,103.2L324.3,100.6L323.8,97.1L325.6,95.3L328.1,94.5L329.9,92.5L332.9,91.3L335.9,88.2L335.0,85.8L333.1,83.7L333.1,80.8L335.3,79.0L337.8,80.9L340.4,82.6L343.9,82.2L345.8,83.9L348.8,83.6L351.1,80.9L351.7,78.0L350.5,75.6L350.4,72.6ZM170.4,292.0L171.5,294.5L173.6,296.0L176.2,296.7L178.7,296.0L180.9,294.5L182.9,296.1L183.5,299.2L181.4,301.1L179.5,303.1L182.7,303.0L186.4,303.3L184.9,305.5L186.8,307.4L187.3,309.9L187.7,312.4L185.0,314.9L183.6,317.3L182.8,319.8L181.5,322.1L180.6,324.5L180.0,327.0L179.1,329.9L178.5,332.8L178.6,335.6L177.3,338.5L177.0,341.2L174.2,340.7L171.7,340.7L172.5,343.3L170.7,345.9L168.6,347.8L165.7,348.9L166.6,346.1L167.3,342.9L166.0,340.6L163.6,338.0L166.4,338.4L167.1,335.5L164.0,335.6L163.2,338.2L162.3,340.9L163.5,343.6L164.2,346.1L161.8,345.0L158.8,344.5L156.6,342.3L158.8,339.8L159.0,337.0L156.5,333.9L157.2,331.2L156.9,328.6L159.4,326.6L160.8,324.0L162.7,321.0L163.1,318.4L161.2,316.5L163.9,314.7L163.2,312.0L161.0,310.5L160.7,307.7L158.3,305.8L155.9,306.5L156.7,309.1L156.7,312.0L159.2,311.8L159.3,314.9L157.1,317.0L156.9,314.3L154.8,313.1L151.8,314.8L149.9,317.3L150.3,314.1L148.1,312.3L146.9,309.8L147.8,306.8L149.8,308.6L149.8,311.5L152.4,311.7L152.4,309.0L149.9,307.4L148.1,305.5L145.8,304.1L146.0,300.9L148.7,301.3L150.0,298.8L152.4,297.9L155.2,298.2L156.1,295.8L158.4,296.8L160.9,295.1L161.1,292.3L162.8,290.3L165.5,289.3L168.1,290.0L170.7,288.6L170.3,291.3ZM234.1,288.3L234.0,291.2L232.6,293.5L229.5,295.3L228.1,297.4L226.8,299.7L226.0,302.8L223.3,301.0L221.8,299.0L218.8,298.1L215.8,298.0L213.1,299.5L210.4,300.9L209.9,303.4L208.4,305.7L207.0,308.1L205.3,310.2L204.8,313.0L202.0,314.0L199.3,313.4L200.5,311.0L198.0,309.9L195.5,307.8L195.8,305.0L196.7,302.4L194.6,300.9L192.2,300.0L189.5,300.6L191.9,299.6L194.3,298.1L196.9,295.7L199.5,294.2L200.0,291.5L201.4,289.1L202.9,286.9L205.5,286.6L207.2,289.3L210.2,288.4L213.3,288.3L215.8,287.1L216.6,284.6L218.2,282.5L220.3,280.5L223.6,280.6L226.5,280.7L228.8,282.7L231.4,283.3L233.9,284.2L232.9,286.9Z" fill="#ffffff" stroke="#ffffff" stroke-width="30" stroke-linejoin="round" stroke-linecap="round"/></svg>
